<svg width="24" height="17" viewBox="0 0 24 17" fill="none" xmlns="http://www.w3.org/2000/svg">
<path d="M22.7333 7.01709H1.26667C0.567106 7.01709 0 7.57595 0 8.26533V8.39673C0 9.08611 0.567106 9.64497 1.26667 9.64497H22.7333C23.4329 9.64497 24 9.08611 24 8.39673V8.26533C24 7.57595 23.4329 7.01709 22.7333 7.01709Z" fill="#35414B"/>
<path d="M22.7333 13.5867H1.26667C0.567106 13.5867 0 14.1455 0 14.8349V14.9663C0 15.6557 0.567106 16.2146 1.26667 16.2146H22.7333C23.4329 16.2146 24 15.6557 24 14.9663V14.8349C24 14.1455 23.4329 13.5867 22.7333 13.5867Z" fill="#35414B"/>
<path d="M22.7333 0.447266H1.26667C0.567106 0.447266 0 1.00613 0 1.69551V1.82691C0 2.5163 0.567106 3.07516 1.26667 3.07516H22.7333C23.4329 3.07516 24 2.5163 24 1.82691V1.69551C24 1.00613 23.4329 0.447266 22.7333 0.447266Z" fill="#35414B"/>
</svg>
